<?xml version="1.0" standalone="no"?>
<!DOCTYPE svg PUBLIC "-//W3C//DTD SVG 20010904//EN"
 "http://www.w3.org/TR/2001/REC-SVG-20010904/DTD/svg10.dtd">
<svg version="1.0" xmlns="http://www.w3.org/2000/svg"
 width="300.000000pt" height="300.000000pt" viewBox="0 0 300.000000 300.000000"
 preserveAspectRatio="xMidYMid meet">
<metadata>
Created by potrace 1.10, written by Peter Selinger 2001-2011
</metadata>
<g transform="translate(0.000000,300.000000) scale(0.100000,-0.100000)"
fill="#000000" stroke="none">
<path d="M1309 2435 c-15 -8 -33 -29 -42 -47 -9 -18 -29 -46 -46 -62 -17 -17
-31 -40 -31 -52 0 -13 -10 -30 -21 -38 -28 -20 -59 -66 -59 -90 0 -10 -11 -31
-25 -48 -14 -16 -25 -42 -25 -58 0 -16 11 -42 25 -58 14 -17 25 -38 25 -48 0
-24 36 -84 50 -84 6 0 19 -20 29 -43 11 -24 31 -53 45 -64 14 -12 26 -27 26
-35 0 -18 44 -68 59 -68 6 0 13 -11 17 -24 10 -40 58 -56 174 -56 110 0 103
-3 167 71 6 8 23 25 37 38 14 13 26 30 26 38 0 8 13 25 29 38 15 14 34 39 42
57 7 18 25 45 41 59 15 14 31 41 34 60 4 19 18 47 31 62 32 39 30 79 -7 120
-17 19 -30 46 -30 60 0 17 -13 39 -35 60 -19 19 -35 43 -35 54 0 10 -15 34
-34 52 -19 19 -40 47 -47 63 -21 51 -50 58 -231 58 -121 -1 -170 -4 -189 -15z
m387 -41 c17 -16 24 -32 21 -45 -3 -12 0 -19 9 -19 8 0 26 -12 41 -26 20 -20
24 -32 19 -55 -4 -20 -2 -29 8 -29 7 0 26 -10 41 -21 22 -18 26 -28 23 -55 -3
-26 1 -35 19 -43 26 -12 38 -49 29 -86 -4 -14 -17 -30 -29 -36 -18 -8 -22 -17
-19 -43 3 -27 -1 -37 -23 -55 -15 -11 -34 -21 -41 -21 -10 0 -12 -9 -8 -29 5
-23 1 -35 -19 -55 -15 -14 -33 -26 -41 -26 -9 0 -12 -7 -9 -19 6 -22 -37 -71
-62 -71 -9 0 -15 -9 -15 -25 0 -36 -27 -45 -140 -45 -113 0 -140 9 -140 45 0
16 -6 25 -15 25 -25 0 -68 49 -62 71 3 12 0 19 -9 19 -8 0 -26 12 -41 26 -19
19 -24 32 -20 54 5 24 2 29 -18 34 -32 8 -59 49 -53 80 4 18 -1 27 -18 35 -44
20 -44 102 -1 122 19 8 22 17 19 40 -5 34 29 79 59 79 15 0 17 6 13 29 -5 23
-1 35 19 55 15 14 33 26 41 26 9 0 12 7 9 19 -3 13 4 29 21 45 25 26 26 26
196 26 170 0 171 0 196 -26z"/>
<path d="M1323 2365 c-10 -28 9 -34 112 -37 81 -2 100 -6 100 -18 0 -12 -24
-16 -140 -20 -138 -5 -140 -5 -143 -29 -5 -31 12 -41 70 -41 26 0 49 -4 52 -9
12 -19 -24 -30 -104 -33 -81 -3 -85 -4 -88 -27 -2 -13 2 -28 10 -32 7 -5 75
-9 151 -9 122 0 138 -2 135 -16 -3 -14 -23 -16 -160 -15 -165 2 -198 -5 -198
-39 0 -35 31 -40 275 -40 185 0 236 -3 233 -12 -4 -10 -61 -14 -224 -18 -120
-4 -220 -7 -222 -8 -2 -1 -2 -14 0 -29 l3 -28 100 -5 c85 -4 100 -8 103 -22 3
-16 -5 -18 -55 -18 -69 0 -86 -9 -81 -41 3 -22 8 -24 71 -27 58 -3 67 -5 67
-22 0 -14 -8 -20 -32 -22 -25 -2 -33 -8 -33 -23 0 -17 8 -21 60 -25 44 -4 60
-9 60 -20 0 -8 -11 -17 -24 -20 -14 -3 -26 -11 -29 -18 -3 -9 24 -12 108 -12
85 0 111 3 108 13 -3 7 -29 14 -64 17 -44 4 -59 9 -59 20 0 12 19 16 95 20 87
5 95 7 95 25 0 15 -8 21 -32 23 -25 2 -33 8 -33 22 0 17 9 19 68 22 62 3 67 5
70 27 5 32 -12 41 -81 41 -50 0 -58 2 -55 18 3 14 18 18 103 22 96 5 100 6
103 29 5 33 -12 41 -90 41 -54 0 -68 3 -68 15 0 12 17 15 91 15 97 0 129 10
129 40 0 33 -33 40 -199 40 -136 0 -161 2 -161 15 0 13 22 15 138 15 75 0 143
4 150 9 8 4 12 19 10 32 l-3 24 -200 5 c-180 5 -200 7 -203 23 -3 16 10 17
155 17 87 0 164 4 171 9 8 4 12 19 10 32 -3 23 -8 24 -88 29 -67 4 -85 8 -85
20 0 11 14 16 50 20 42 4 50 8 50 25 0 19 -8 20 -173 23 -150 2 -173 0 -179
-13z m337 -107 c36 -1 -7 -5 -95 -9 -88 -4 -167 -8 -175 -9 -20 -1 -104 10
-109 16 -2 2 50 4 115 4 87 0 125 4 139 14 17 12 22 12 39 0 12 -8 49 -15 86
-16z m-127 -98 c68 1 107 -3 107 -10 0 -6 -24 -10 -58 -10 -32 0 -63 -5 -70
-12 -8 -8 -15 -8 -25 1 -10 7 -61 12 -146 13 -72 0 -131 4 -131 9 0 9 147 18
190 12 14 -2 73 -3 133 -3z m-17 -100 c5 -5 80 -10 167 -10 86 -1 157 -6 157
-11 0 -5 -40 -9 -89 -9 -50 0 -93 -5 -96 -10 -4 -7 -12 -7 -25 0 -11 6 -109
10 -234 10 -137 0 -216 4 -216 10 0 6 56 10 149 10 89 0 152 4 156 10 8 13 18
13 31 0z m212 -118 c92 -6 75 -20 -24 -21 -71 0 -90 -3 -108 -19 -21 -19 -21
-19 -40 -1 -24 23 -78 25 -112 3 -23 -16 -26 -15 -45 2 -16 14 -43 20 -107 25
-61 4 -25 6 120 7 134 1 209 6 213 13 4 6 14 7 24 3 9 -4 44 -10 79 -12z
m-175 -70 c27 -24 22 -76 -9 -101 -15 -12 -34 -21 -44 -21 -33 0 -70 39 -70
74 0 65 71 93 123 48z m-153 -54 c0 -17 -3 -19 -12 -10 -7 7 -35 13 -62 14
l-51 1 55 7 c30 4 58 7 63 8 4 1 7 -8 7 -20z m277 12 c58 0 48 -13 -11 -15
-24 -1 -48 -5 -55 -9 -7 -5 -11 1 -11 14 0 16 4 20 16 16 9 -3 36 -6 61 -6z
m-224 -89 c15 -8 27 -18 27 -22 0 -13 -18 -20 -25 -9 -3 5 -19 10 -36 10 -16
0 -29 4 -29 8 0 11 23 33 30 29 3 -1 17 -9 33 -16z m146 5 c10 -12 6 -15 -19
-21 -39 -9 -51 2 -26 21 25 18 31 18 45 0z"/>
<path d="M1835 1170 c-22 -24 -14 -72 13 -85 24 -11 28 -35 10 -64 -20 -33 -3
-51 47 -51 50 0 67 18 47 51 -17 26 -15 59 3 59 29 0 42 67 17 92 -6 6 -36 12
-66 13 -42 2 -59 -2 -71 -15z m135 -40 c0 -20 -5 -30 -15 -30 -8 0 -15 9 -15
20 0 11 -4 20 -10 20 -6 0 -10 -28 -10 -65 0 -51 3 -65 15 -65 8 0 15 -4 15
-10 0 -5 -20 -10 -45 -10 -25 0 -45 5 -45 10 0 6 7 10 15 10 12 0 15 14 15 65
0 37 -4 65 -10 65 -5 0 -10 -9 -10 -20 0 -11 -7 -20 -15 -20 -10 0 -15 10 -15
30 l0 30 65 0 65 0 0 -30z"/>
<path d="M1002 1168 c-13 -17 -9 -175 5 -189 17 -17 48 -6 51 19 4 29 20 29
24 0 4 -31 43 -36 58 -8 6 12 9 29 6 38 -4 12 -2 11 9 -3 30 -42 49 -55 82
-55 47 0 73 16 73 45 0 24 -3 25 -56 25 -51 0 -55 -2 -43 -16 9 -11 23 -14 46
-11 42 7 51 -7 15 -22 -59 -25 -119 30 -94 84 7 14 23 30 36 35 42 16 65 1 96
-61 33 -64 52 -79 103 -79 41 0 76 32 59 53 -8 9 -8 17 -1 24 6 6 9 26 7 44
-3 33 -4 34 -55 37 -45 3 -57 -1 -77 -21 l-23 -23 -27 23 c-15 13 -40 23 -57
23 -36 0 -79 -26 -79 -48 0 -35 -13 1 -14 39 -1 49 -24 71 -54 52 -12 -7 -24
-8 -33 -2 -20 12 -45 11 -57 -3z m52 -24 c3 -9 6 -24 6 -35 0 -10 5 -19 10
-19 6 0 10 9 10 19 0 33 11 51 31 51 17 0 19 -8 19 -85 0 -69 -3 -85 -15 -85
-11 0 -15 13 -16 58 -1 52 -2 54 -10 25 -5 -18 -14 -33 -19 -33 -5 0 -14 15
-19 33 -8 29 -9 27 -10 -25 -1 -45 -5 -58 -16 -58 -12 0 -15 16 -15 85 0 77 2
85 19 85 10 0 22 -7 25 -16z m389 -36 c12 1 17 -7 17 -29 0 -35 -12 -37 -33
-6 -12 18 -18 20 -34 11 -45 -28 -20 -79 35 -69 42 8 41 -14 -2 -28 -22 -7
-34 -5 -55 10 -38 29 -40 74 -5 102 17 13 34 19 43 15 9 -4 24 -6 34 -6z m-20
-63 c1 -5 -6 -11 -15 -13 -11 -2 -18 3 -18 13 0 17 30 18 33 0z"/>
<path d="M1504 1168 c-11 -18 -12 -171 -1 -185 13 -18 44 -16 51 3 6 16 8 16
24 0 20 -17 48 -21 56 -8 3 5 8 30 11 58 6 40 3 53 -13 72 -11 12 -31 22 -45
22 -18 0 -26 7 -31 25 -7 26 -39 35 -52 13z m36 -45 c0 -34 1 -35 18 -20 10
10 22 17 27 17 5 0 17 -7 27 -17 24 -21 26 -113 3 -113 -11 0 -15 12 -15 45 0
33 -5 47 -16 52 -23 9 -44 -23 -44 -64 0 -23 -5 -33 -15 -33 -12 0 -15 16 -15
85 0 69 3 85 15 85 11 0 15 -11 15 -37z m27 -95 c-3 -7 -5 -2 -5 12 0 14 2 19
5 13 2 -7 2 -19 0 -25z"/>
<path d="M1684 1165 c-4 -8 1 -30 9 -48 17 -37 16 -69 -2 -91 -7 -8 -11 -23
-9 -33 5 -26 102 -32 112 -7 3 9 1 23 -5 30 -20 24 -22 83 -4 110 13 20 14 28
4 40 -16 20 -98 19 -105 -1z m96 -15 c0 -5 -7 -10 -15 -10 -12 0 -15 -14 -15
-65 0 -51 3 -65 15 -65 8 0 15 -6 15 -13 0 -8 -14 -11 -45 -9 -25 2 -45 8 -45
13 0 5 7 9 15 9 12 0 15 14 15 65 0 51 -3 65 -15 65 -8 0 -15 5 -15 10 0 6 20
10 45 10 25 0 45 -4 45 -10z"/>
<path d="M1213 1084 c-25 -11 -12 -22 22 -21 20 1 34 6 32 11 -4 12 -35 18
-54 10z"/>
<path d="M1136 823 c-3 -3 -6 -15 -6 -27 0 -15 -3 -17 -12 -8 -15 15 -64 16
-73 2 -5 -8 -11 -8 -20 0 -8 6 -29 10 -47 8 -32 -3 -33 -5 -34 -46 l-1 -42 4
40 c4 38 6 40 39 40 34 0 34 0 32 -42 l-1 -43 -4 38 c-2 20 -8 35 -14 32 -11
-7 -12 -65 -1 -66 4 0 30 -2 59 -5 31 -3 54 -1 58 6 5 8 10 8 20 0 9 -8 15 -8
20 0 4 7 12 7 25 0 24 -13 35 2 21 28 -7 13 -7 22 1 30 15 15 0 34 -23 27 -13
-4 -19 -2 -19 9 0 17 -14 29 -24 19z m30 -54 c8 11 20 21 26 21 6 0 4 -8 -6
-19 -15 -16 -15 -19 -1 -31 8 -7 15 -17 15 -23 0 -5 -8 -3 -18 6 -23 21 -29
21 -35 0 -3 -10 -4 9 -4 42 0 40 2 47 4 21 4 -37 5 -38 19 -17z m-58 -21 c3
-35 2 -36 -27 -34 -17 1 -33 5 -37 9 -11 10 16 37 38 37 11 0 16 5 13 10 -4 6
-15 8 -26 5 -11 -4 -19 -2 -19 5 0 6 12 10 28 8 23 -3 27 -8 30 -40z"/>
<path d="M1065 740 c-3 -5 1 -10 9 -10 8 0 18 5 21 10 3 6 -1 10 -9 10 -8 0
-18 -4 -21 -10z"/>
<path d="M1712 818 c-19 -19 -14 -33 6 -16 9 9 24 18 32 21 11 4 9 6 -5 6 -12
1 -26 -4 -33 -11z"/>
<path d="M689 782 c4 -26 6 -30 9 -14 4 24 22 31 22 8 0 -8 -4 -26 -10 -40 -6
-17 -6 -26 0 -26 6 0 10 6 10 13 1 6 5 31 9 55 7 35 6 40 -5 31 -10 -8 -18 -8
-27 -1 -10 9 -12 3 -8 -26z"/>
<path d="M744 766 c-9 -46 -8 -56 0 -43 11 14 13 14 24 -4 13 -20 57 -26 67
-9 4 7 -2 9 -18 5 -30 -8 -38 3 -52 65 l-10 45 -11 -59z"/>
<path d="M1451 811 c-1 -7 -7 -11 -16 -7 -15 6 -16 3 -19 -50 -1 -21 3 -30 12
-27 14 6 16 43 2 43 -5 0 -10 5 -10 10 0 6 7 10 15 10 10 0 15 -10 15 -30 0
-16 4 -30 8 -30 4 0 6 17 4 38 -4 41 -10 64 -11 43z"/>
<path d="M665 775 c4 -22 11 -47 15 -55 6 -9 7 0 3 25 -3 22 -10 47 -15 55 -6
10 -7 1 -3 -25z"/>
<path d="M1497 797 c-16 -43 30 -110 61 -90 21 13 22 38 2 38 -8 0 -15 5 -15
12 0 6 -3 15 -7 19 -5 4 -8 -5 -8 -20 0 -23 4 -27 20 -23 24 6 27 -11 4 -20
-19 -7 -47 24 -40 44 3 6 0 14 -7 17 -9 3 -8 7 2 14 8 6 9 12 3 16 -5 3 -12 0
-15 -7z"/>
<path d="M1530 802 c0 -6 9 -12 20 -15 11 -3 20 -3 20 -1 0 2 -9 8 -20 14 -11
6 -20 7 -20 2z"/>
<path d="M774 789 c-4 -8 1 -9 15 -4 25 7 51 -9 51 -32 0 -11 -8 -14 -30 -11
-19 3 -27 1 -21 -5 14 -14 55 -4 59 16 2 10 -2 24 -8 32 -15 18 -56 20 -66 4z"/>
<path d="M1222 776 c-20 -44 27 -93 65 -68 6 4 14 19 18 33 13 52 -61 83 -83
35z m66 2 c23 -23 14 -41 -18 -36 -16 3 -30 1 -30 -4 0 -4 12 -8 27 -8 20 0
24 -3 16 -11 -15 -15 -50 -3 -56 20 -10 40 32 68 61 39z"/>
<path d="M1245 770 c-3 -5 3 -10 15 -10 12 0 18 5 15 10 -3 6 -10 10 -15 10
-5 0 -12 -4 -15 -10z"/>
<path d="M1738 793 c7 -3 16 -2 19 1 4 3 -2 6 -13 5 -11 0 -14 -3 -6 -6z"/>
<path d="M1770 786 c-14 -8 -28 -12 -32 -10 -5 3 -8 -6 -8 -20 0 -14 4 -28 10
-31 5 -3 7 0 4 9 -12 32 9 36 24 4 10 -18 26 -34 37 -35 18 -3 18 -2 -2 8 -28
15 -36 35 -22 60 12 24 47 22 63 -3 8 -13 8 -23 -2 -38 -11 -18 -10 -19 13 -8
32 14 32 41 0 62 -29 19 -52 20 -85 2z"/>
<path d="M1874 790 c18 -6 66 -2 66 6 0 1 -19 2 -42 2 -29 0 -37 -3 -24 -8z"/>
<path d="M2067 767 l17 -37 13 32 c7 17 16 28 19 25 11 -11 -35 -97 -52 -97
-16 0 -16 1 -2 13 15 11 15 15 -2 47 -11 19 -19 29 -20 22 0 -7 6 -21 12 -32
10 -15 10 -22 0 -32 -19 -19 -14 -28 14 -28 20 0 28 8 41 38 15 35 16 36 24
15 10 -27 53 -40 74 -23 13 11 20 10 41 0 16 -9 28 -10 35 -3 6 6 2 9 -13 9
-18 -1 -24 5 -26 29 -2 21 -11 34 -29 43 -33 15 -60 16 -68 2 -5 -8 -12 -7
-22 2 -12 10 -17 9 -27 -4 -12 -16 -14 -16 -29 -1 -15 15 -15 13 0 -20z m141
7 c13 -23 3 -52 -20 -59 -22 -8 -48 11 -48 34 0 38 51 56 68 25z"/>
<path d="M2161 766 c-16 -19 -6 -36 20 -36 15 0 20 6 17 22 -4 27 -21 33 -37
14z m24 -5 c3 -5 1 -12 -5 -16 -5 -3 -10 1 -10 9 0 18 6 21 15 7z"/>
<path d="M2248 764 c5 -44 34 -43 43 1 6 27 7 25 9 -15 l3 -45 4 39 c5 43 -12
72 -23 40 -15 -46 -17 -49 -22 -24 -6 40 -18 44 -14 4z"/>
<path d="M785 770 c-3 -5 3 -10 14 -10 12 0 21 5 21 10 0 6 -6 10 -14 10 -8 0
-18 -4 -21 -10z"/>
<path d="M973 745 c0 -22 2 -30 4 -17 2 12 2 30 0 40 -3 9 -5 -1 -4 -23z"/>
<path d="M1698 753 c5 -21 7 -23 10 -9 2 10 0 22 -6 28 -6 6 -7 0 -4 -19z"/>
<path d="M1797 774 c-16 -16 -7 -44 14 -44 15 0 20 5 17 22 -3 22 -19 33 -31
22z m23 -24 c0 -5 -5 -10 -11 -10 -5 0 -7 5 -4 10 3 6 8 10 11 10 2 0 4 -4 4
-10z"/>
<path d="M1901 761 c-8 -14 -7 -22 4 -31 13 -11 14 -10 9 4 -3 9 -1 23 6 31 8
10 9 15 2 15 -6 0 -16 -9 -21 -19z"/>
<path d="M1697 709 c7 -7 15 -10 18 -7 3 3 -2 9 -12 12 -14 6 -15 5 -6 -5z"/>
<path d="M1438 703 c7 -3 16 -2 19 1 4 3 -2 6 -13 5 -11 0 -14 -3 -6 -6z"/>
</g>
</svg>
